# xmcd
#
# Track frame offsets:
#	150
#	14054
#	32512
#	46185
#	60254
#	72416
#	88031
#	101631
#	114971
#	134201
#	148738
#	157667
#
# Disc length: 2320 seconds
#
# Revision: 1
# Processed by: cddbd v1.5.2PL0 Copyright (c) Steve Scherf et al.
# Submitted via: audiograbber 1.83.01
#
DISCID=9f090e0c
DTITLE=Phillip Clarkson - Im Not As Think As You Drunk I Am
DYEAR=2007
DGENRE=Country
TTITLE0=Lucky Break 
TTITLE1=The Check압 In The Mail
TTITLE2=Nothing That Can Keep Me From Love
TTITLE3=In The Arms Of Someone New
TTITLE4=I앐 Not As Think As You Drunk I Am
TTITLE5=Love Heals The Hurt
TTITLE6=Woman On The Run
TTITLE7=He압 Too Far Gone
TTITLE8=Chin안e Chin Chin
TTITLE9=We Had It All
TTITLE10=Side By Side
TTITLE11=We았e All Got A Song To Sing
EXTD=
EXTT0=
EXTT1=
EXTT2=
EXTT3=
EXTT4=
EXTT5=
EXTT6=
EXTT7=
EXTT8=
EXTT9=
EXTT10=
EXTT11=
PLAYORDER=
